<svg xmlns="http://www.w3.org/2000/svg"  viewBox="0 0 64 64" width="64px" height="64px"><circle cx="32" cy="32" r="22.5" fill="#fff8ee"/><path fill="#ed7899" d="M32,5C17.09,5,5,17.09,5,32c0,1.36,0.1,2.69,0.29,3.99C7.22,49.01,18.45,59,32,59	s24.78-9.99,26.71-23.01C58.9,34.69,59,33.36,59,32C59,17.09,46.91,5,32,5z M32,50c-9.94,0-18-8.06-18-18s8.06-18,18-18	s18,8.06,18,18S41.94,50,32,50z"/><circle cx="32" cy="32" r="9" fill="#f283a5"/><circle cx="32" cy="32" r="5" fill="#ed7899"/><path fill="#f283a5" d="M59,32c0,1.36-0.1,2.69-0.29,3.99C56.64,35.84,55,34.11,55,32C55,19.32,44.68,9,32,9S9,19.32,9,32	c0,2.11-1.64,3.84-3.71,3.99C5.1,34.69,5,33.36,5,32C5,17.09,17.09,5,32,5S59,17.09,59,32z"/><path fill="#8d6c9f" d="M32,60C16.561,60,4,47.439,4,32S16.561,4,32,4s28,12.561,28,28S47.439,60,32,60z M32,6	C17.663,6,6,17.663,6,32s11.663,26,26,26s26-11.663,26-26S46.337,6,32,6z M32,51c-10.477,0-19-8.523-19-19s8.523-19,19-19	s19,8.523,19,19S42.477,51,32,51z M32,15c-9.374,0-17,7.626-17,17s7.626,17,17,17s17-7.626,17-17S41.374,15,32,15z"/><path fill="#8d6c9f" d="M51.116,7.064c-0.214,0-0.43-0.068-0.612-0.21c-0.437-0.339-0.516-0.968-0.177-1.403l1.227-1.579 c0.339-0.436,0.966-0.516,1.403-0.177c0.437,0.339,0.516,0.968,0.177,1.403l-1.227,1.579C51.71,6.932,51.415,7.064,51.116,7.064z"/><path fill="#8d6c9f" d="M54.742,10.258c-0.256,0-0.512-0.098-0.707-0.293c-0.391-0.391-0.391-1.024,0-1.414l1.415-1.414 c0.391-0.391,1.023-0.391,1.414,0s0.391,1.024,0,1.414l-1.415,1.414C55.254,10.16,54.998,10.258,54.742,10.258z"/><path fill="#8d6c9f" d="M57.937,13.883c-0.299,0-0.594-0.133-0.791-0.387c-0.339-0.436-0.26-1.064,0.177-1.403l1.579-1.227 c0.438-0.34,1.065-0.259,1.403,0.177c0.339,0.436,0.26,1.064-0.177,1.403l-1.579,1.227C58.366,13.814,58.15,13.883,57.937,13.883z"/><g><path fill="#8d6c9f" d="M11.655,60.532c-0.214,0-0.43-0.068-0.612-0.21c-0.437-0.339-0.516-0.967-0.177-1.403l1.227-1.58 c0.339-0.435,0.967-0.516,1.403-0.177s0.516,0.967,0.177,1.403l-1.227,1.58C12.249,60.399,11.954,60.532,11.655,60.532z"/><path fill="#8d6c9f" d="M7.843,57.174c-0.256,0-0.512-0.098-0.707-0.293c-0.391-0.391-0.391-1.024,0-1.414l1.415-1.414 c0.391-0.391,1.023-0.391,1.414,0s0.391,1.024,0,1.414L8.55,56.881C8.354,57.076,8.099,57.174,7.843,57.174z"/><path fill="#8d6c9f" d="M4.486,53.361c-0.299,0-0.594-0.133-0.791-0.387c-0.339-0.436-0.26-1.064,0.177-1.403l1.579-1.227 c0.438-0.339,1.064-0.259,1.403,0.177s0.26,1.064-0.177,1.403l-1.579,1.227C4.916,53.293,4.7,53.361,4.486,53.361z"/></g><path fill="#8d6c9f" d="M32,42c-5.514,0-10-4.486-10-10s4.486-10,10-10s10,4.486,10,10S37.514,42,32,42z M32,24	c-4.411,0-8,3.589-8,8s3.589,8,8,8s8-3.589,8-8S36.411,24,32,24z"/></svg>